<svg xmlns="http://www.w3.org/2000/svg" xmlns:xlink="http://www.w3.org/1999/xlink" version="1.1" width="101.06199645996094" height="103.42207336425781" viewBox="-0.4579999968409538 -0.19401931762695312 101.06199645996094 103.42207336425781">
  <!-- Exported by Scratch - http://scratch.mit.edu/ -->
  <g id="ID0.9773929151706398">
    <g id="R_Wing_1_">
      <path id="Inner_2_" fill="#936C54" d="M 69.957 55.975 C 77.266 58.91 77.654 66.145 73.717 71.631 C 79.946 75.406 84.613 76.803 89.283 81.837 C 92.658 85.471 92.181 88.441 94.82 92.74 C 95.861 90.642 94.385 89.245 93.955 87.01 C 93.307 83.585 93.781 81.626 93.781 78.202 C 93.781 72.015 95.209 68.661 96.722 62.543 C 97.978 57.338 90.408 55.904 85.654 52.339 C 83.795 50.942 83.23 49.018 80.638 48.844 C 77.912 48.669 77.566 51.326 75.275 52.481 C 73.287 53.456 70.734 54.227 69.957 55.975 Z " stroke-width="1"/>
      <path id="Outer_3_" fill="#CF9F70" d="M 76.486 49.822 C 82.453 52.198 88.941 56.671 91.535 59.187 C 91.535 59.187 80.639 56.669 77.351 57.019 C 79.338 59.255 90.497 62.054 90.497 62.054 C 85.523 65.06 82.103 67.329 78.389 71.351 C 84.186 70.021 86.823 68.622 91.88 66.177 C 92.143 82.882 95.427 92.739 95.427 92.739 C 95.341 77.218 99.667 61.598 98.628 58.906 C 97.634 56.322 87.561 52.197 81.68 47.584 C 80.273 46.484 77.914 48.669 76.486 49.822 Z " stroke-width="1"/>
      <path id="Outline_5_" fill="#272525" d="M 100.104 58.6 C 98.735 67.649 96.106 76.122 96.719 85.339 C 96.901 88.065 97.139 90.862 97.03 93.591 C 96.451 94.059 95.469 94.057 94.815 93.69 C 93.412 92.901 91.733 87.8 90.817 86.186 C 85.742 77.223 74.301 73.165 71.754 71.522 C 72.441 69.794 73.944 69.464 74.566 67.688 C 77.232 63.026 72.828 59.503 69.982 56.25 C 69.791 56.034 69.683 55.523 70.107 55.406 C 78.109 58.369 78.398 68.537 74.4 71.521 C 82.869 73.994 90.861 80.823 93.342 87.827 C 91.881 80.81 90.342 73.605 91.865 66.503 C 89.311 67.927 79.539 72.566 76.401 71.493 C 75.817 71.294 89.649 62.327 89.649 62.327 C 86.955 61.357 77.438 60.38 76.612 56.114 C 81.408 56.216 90.633 58.501 90.633 58.501 C 87.194 55.677 80.238 53.505 77 50.5 L 77.188 49.657 C 78.776 49.629 93.598 59.422 93.344 59.941 C 89.375 59.96 82.772 57.406 78.705 57.556 C 83.1 59.921 92.34 61.601 92.23 61.917 C 88.652 64.417 82.892 67.698 79.519 70.374 C 81.822 69.938 91.828 65.379 93.465 63.968 C 93.465 63.968 92.777 83.913 95.517 90.294 C 94.219 82.466 96.564 62.71 98.447 59.196 C 93.816 57.549 83.906 50.924 80.562 47.754 C 80.312 47.521 80.527 46.978 80.869 46.812 C 82.254 47.146 98.029 57.253 100.104 58.6 Z " stroke-width="1"/>
    </g>
    <g id="Body">
      <g id="Body_1_">
        <path id="Body_Fill" fill="#CF9F70" d="M 86.057 32.334 C 86.057 29.779 88.507 28.312 88.994 25.841 C 90.598 17.712 92.528 10.588 86.743 4.554 C 84.092 8.283 77.819 19.638 77.819 19.638 C 77.819 19.638 74.524 18.967 72.547 18.787 C 71.151 15.7 68.379 12.266 66.167 8.576 C 64.157 5.224 60.541 1.537 59.094 1.704 C 57.447 1.895 56.563 6.021 56.362 9.079 C 55.918 15.24 56.44 19.303 57.325 24.835 C 51.297 28.689 47.519 31.287 43.983 37.486 C 40.566 43.437 42.536 46.958 42.536 53.831 C 42.536 59.234 40.446 65.896 32.73 63.217 C 29.93 62.242 28.59 60.283 25.657 60.366 C 24.25 60.408 23.005 60.45 22.282 61.709 C 21.478 63.091 23.929 64.223 25.496 64.223 C 24.21 65.731 22.08 67.452 23.407 68.915 C 24.613 70.256 26.3 69.586 27.908 68.915 C 27.788 70.633 28.39 73.105 29.997 72.771 C 33.132 72.099 33.855 68.411 37.07 68.411 C 42.013 68.411 45.187 67.574 48.323 62.21 C 51.065 64.093 53.908 64.285 57.108 64.486 L 56.744 65.818 C 54.953 68.795 51.77 69.454 48.626 69.092 C 47.881 69.006 46.662 69.271 46.969 70.644 C 47.277 72.015 52.181 69.956 52.341 70.523 C 52.502 71.092 48.092 72.162 49.313 74.099 C 50.533 76.037 54.623 71.678 55.371 72.37 C 56.12 73.062 52.514 74.609 53.714 75.828 C 54.914 77.043 59.054 72.049 56.571 69.807 C 56.748 69.313 58.337 66.495 59.436 64.628 C 63.512 64.83 66.436 64.432 70.022 61.873 C 73.559 59.359 75.688 57.307 77.579 53.325 C 79.468 49.346 79.748 44.607 84.01 44.107 C 85.9 43.896 87.503 44.107 88.67 42.599 C 89.636 41.338 88.871 39.578 88.351 38.073 C 87.464 35.602 86.057 34.975 86.057 32.334 Z " stroke-width="1"/>
        <path id="Outline_2_" d="M 87.27 31.098 C 87.537 30.598 87.788 30.091 88.038 29.585 C 88.383 29.027 89.184 27.65 89.184 27.573 C 91.547 21.151 92.411 11.124 89.063 5.028 C 88.549 4.092 87.624 2.74 86.436 3.419 C 83.526 8.54 81.219 14.057 77.632 18.733 C 76.126 18.06 74.423 18.242 72.831 18.02 C 71.471 13.984 62.953 -1.873 57.915 0.558 C 55.515 5.392 54.726 19.149 56.972 23.987 C 56.316 24.425 55.674 24.877 55.07 25.347 L 55.074 25.349 C 52.136 26.949 46.687 31.81 43.178 37.737 C 37.82 46.786 44.685 56.92 39.112 62.232 C 35.938 65.257 32 60.691 29.11 59.789 C 23.446 58.019 17.538 62.587 24.129 65.101 C 20.917 67.435 22.505 71.946 27.338 70.337 C 26.98 70.898 26.53 71.683 26.881 72.243 C 28.831 75.364 33.814 72.931 35.282 68.905 C 41.229 70.223 46.481 65.904 48.007 62.93 C 48.014 62.936 48.018 62.94 48.025 62.946 C 48.961 63.588 51.569 64.445 54.586 65.036 C 52.02 68.252 47.669 64.708 44.912 68.674 C 44.138 69.787 44.545 72.771 47.479 72.56 C 46.434 73.691 47.599 78.802 51.98 76.331 C 55.676 79.425 58.771 74.948 58.289 70.086 C 58.601 68.679 60.187 67.173 61.595 65.702 C 62.647 65.668 63.634 65.556 64.489 65.334 C 70.719 63.665 77.063 58.423 79.007 51.747 C 79.007 51.747 79.908 49.262 79.902 47.893 C 81.408 47.182 82.824 46.257 84.092 45.074 C 84.799 44.906 84.353 44.468 87.869 44.141 C 88.877 43.881 90.041 43.458 90.436 43.166 C 90.22 41.282 88.612 38.884 87.873 36.595 C 87.859 36.562 86.557 32.441 87.27 31.098 Z M 56.569 69.809 C 59.052 72.05 54.912 77.044 53.712 75.83 C 52.512 74.612 56.118 73.064 55.369 72.372 C 54.621 71.682 50.531 76.04 49.311 74.101 C 48.09 72.163 52.5 71.094 52.339 70.525 C 52.179 69.958 47.275 72.017 46.967 70.646 C 46.66 69.273 47.879 69.008 48.624 69.094 C 51.768 69.454 54.951 68.795 56.742 65.82 L 56.945 65.428 C 57.573 65.513 58.204 65.586 58.829 65.635 C 57.955 67.038 56.794 69.178 56.569 69.809 Z M 87.801 41.736 C 84.739 41.978 81.55 43.279 78.487 42.332 C 72.575 40.503 65.764 39.588 60.483 43.761 L 60.483 44.774 C 62.354 44.715 63.987 43.336 65.744 42.752 C 67.694 42.101 70.041 42.125 71.745 42.453 C 74.733 42.515 77.202 44.643 80.145 44.895 C 74.809 49.416 65.081 47.249 64.77 47.457 C 64.686 49.355 67.043 49.503 67.916 49.603 C 71.552 50.007 75.351 49.71 78.763 48.382 C 78.167 49.582 77.535 51.283 77.406 51.623 C 73.863 59.552 67.443 63.323 59.175 63.631 C 55.973 63.751 51.274 62.575 48.029 61.521 C 47.739 61.424 47.515 61.53 47.416 61.73 C 47.412 61.734 47.407 61.736 47.403 61.741 C 45.554 63.797 42.778 69.291 33.914 67.062 C 33.696 70.545 29.477 72.853 28.941 71.232 C 28.406 69.615 31.446 68.119 30.885 67.241 C 30.324 66.363 26.543 68.539 25.513 68.672 C 24.482 68.804 24.373 68.078 25.113 67.241 C 25.852 66.406 29.156 64.39 28.941 63.665 C 28.728 62.941 23.433 64.579 24.141 62.355 C 24.574 60.995 26.773 61.156 27.927 61.472 C 31.492 62.457 34.405 67.816 40.202 63.9 C 46.994 59.312 39.895 47.368 44.717 38.633 C 48.726 31.365 56.08 26.396 56.564 26.085 C 58.326 24.716 66.754 21.694 67.635 20.042 C 69.097 17.297 59.975 4.55 59.975 4.55 C 62.299 9.041 64.498 13.623 66.151 18.433 C 64.768 19.596 61.341 21.233 58.07 23.278 C 58.21 21.759 57.266 18.976 57.232 18.433 C 56.929 13.593 57.667 7.319 59.576 2.881 C 67.396 7.555 70.704 18.882 72.722 20.162 C 74.649 19.971 76.492 20.191 78.323 20.579 C 78.71 20.321 84.703 10.081 87.011 5.144 C 90.067 11.112 89.686 16.725 88.897 23.142 C 88.741 24.421 88.543 25.754 88.061 26.936 C 87.713 27.787 87.283 28.621 86.893 29.455 C 86.725 28.66 86.254 27.246 86.229 26.957 C 86.034 24.749 84.061 22.664 82.576 21.89 C 84.748 18.731 86.506 12.513 86.403 7.886 C 84.862 12.414 83.549 17.062 81.203 21.293 C 81.203 21.293 82.776 22.648 84.057 24.749 C 85.153 26.542 85.953 28.966 86.723 29.834 C 85.964 31.535 85.467 33.248 86.324 35.125 C 86.334 35.146 86.96 36.89 87.004 36.938 C 87.688 38.568 88.505 40.35 87.801 41.736 Z " stroke-width="1" fill="undefined"/>
      </g>
      <g id="L_Eye">
        <path id="Outline_1_" d="M 72.145 28.865 C 73.61 30.795 73.788 34.65 71.061 35.597 C 68.504 36.488 63.684 35.351 62.032 33.035 C 59.388 29.333 65.254 19.781 72.145 28.865 Z " stroke-width="1" fill="undefined"/>
        <path id="White" fill="#FFFFFF" d="M 71.459 31.009 C 72.409 35.206 61.744 35.067 63.516 29.461 C 64.641 25.903 70.908 28.568 71.459 31.009 Z " stroke-width="1"/>
        <path id="Pupil" d="M 69.378 30.869 C 69.821 30.869 70.223 31.057 70.513 31.36 C 70.804 31.664 70.984 32.083 70.984 32.545 C 70.984 33.007 70.804 33.426 70.513 33.73 C 70.223 34.033 69.821 34.221 69.378 34.221 C 68.935 34.221 68.533 34.033 68.243 33.73 C 67.952 33.426 67.772 33.007 67.772 32.545 C 67.772 32.083 67.952 31.664 68.243 31.36 C 68.533 31.057 68.935 30.869 69.378 30.869 Z " stroke-width="1" fill="undefined"/>
        <path id="Eyebrow" d="M 74.773 29.163 C 74.318 29.519 73.515 29.163 73.002 28.865 C 72.373 27.136 68.132 22.32 68.132 22.32 C 70.592 23.036 74.318 26.54 74.773 29.163 Z " stroke-width="1" fill="undefined"/>
      </g>
      <g id="R_Eye">
        <path id="Eyebrow_1_" d="M 83.404 26.004 C 81.861 27.076 81.347 29.223 79.861 30.057 C 79.576 30.057 79.347 29.996 79.173 29.757 C 79.404 27.912 81.033 26.302 83.404 26.004 Z " stroke-width="1" fill="undefined"/>
        <path id="Dark" d="M 80.713 34.053 C 80.585 33.418 80.748 32.123 81.629 30.782 C 83.113 28.518 85.884 26.486 88.206 29.465 C 90.312 32.168 87.072 36.693 83.592 36.019 C 82.613 35.82 81.033 35.646 80.713 34.053 Z " stroke-width="1" fill="undefined"/>
        <path id="White_1_" fill="#FFFFFF" d="M 87.861 31.604 C 88.033 34.127 83.382 35.602 82.582 34.038 C 81.131 31.195 87.617 27.971 87.861 31.604 Z " stroke-width="1"/>
        <path id="Pupil_1_" d="M 86.154 32.077 C 86.493 32.077 86.8 32.22 87.023 32.452 C 87.245 32.684 87.383 33.004 87.383 33.357 C 87.383 33.71 87.245 34.03 87.023 34.262 C 86.8 34.494 86.493 34.637 86.154 34.637 C 85.815 34.637 85.508 34.494 85.285 34.262 C 85.063 34.03 84.925 33.71 84.925 33.357 C 84.925 33.004 85.063 32.684 85.285 32.452 C 85.508 32.22 85.815 32.077 86.154 32.077 Z " stroke-width="1" fill="undefined"/>
      </g>
      <g id="L_Tooth">
        <path id="ID0.9823228875175118" fill="#FFFFFF" d="M 69.473 45.416 C 68.54 45.416 68.096 44.23 67.741 43.277 C 67.647 43.031 67.567 42.81 67.492 42.665 L 67.246 42.191 L 67.733 41.976 C 68.014 41.851 68.366 41.788 68.774 41.788 C 69.449 41.788 70.083 41.961 70.108 41.968 L 70.574 42.098 L 70.463 42.567 C 70.448 42.645 70.474 42.924 70.492 43.129 C 70.567 43.95 70.68 45.191 69.682 45.396 C 69.613 45.408 69.542 45.416 69.473 45.416 L 69.473 45.416 Z " stroke-width="1"/>
        <path id="ID0.41586543479934335" d="M 68.771 42.288 C 69.386 42.288 69.974 42.45 69.974 42.45 C 69.861 42.928 70.383 44.738 69.578 44.904 C 69.541 44.912 69.505 44.916 69.47 44.916 C 68.685 44.916 68.259 43.062 67.933 42.434 C 68.18 42.325 68.479 42.288 68.771 42.288 M 68.771 41.288 C 68.292 41.288 67.875 41.366 67.53 41.517 L 66.552 41.949 L 67.045 42.894 C 67.101 43 67.187 43.23 67.269 43.452 C 67.66 44.492 68.193 45.916 69.47 45.916 C 69.575 45.916 69.681 45.904 69.785 45.883 C 71.215 45.588 71.059 43.897 70.985 43.082 C 70.971 42.932 70.954 42.728 70.955 42.641 L 71.168 41.744 L 70.238 41.488 C 70.167 41.466 69.502 41.288 68.771 41.288 L 68.771 41.288 Z " stroke-width="1" fill="undefined"/>
      </g>
      <g id="R_Tooth">
        <path id="ID0.2479417328722775" fill="#FFFFFF" d="M 87.538 46.789 C 86.325 46.789 85.797 45.31 85.57 44.682 L 85.507 44.505 L 85.274 43.925 L 85.891 43.825 C 86.037 43.801 86.24 43.783 86.465 43.763 C 86.899 43.726 87.704 43.659 87.924 43.487 L 89.207 42.478 L 88.709 44.033 C 88.672 44.148 88.648 44.405 88.629 44.652 C 88.565 45.407 88.483 46.345 87.824 46.722 L 87.718 46.783 L 87.538 46.789 Z " stroke-width="1"/>
        <path id="ID0.9899716428481042" d="M 88.232 43.881 C 88.06 44.417 88.205 45.93 87.576 46.288 C 87.562 46.289 87.551 46.289 87.538 46.289 C 86.56 46.289 86.137 44.73 85.971 44.318 C 86.49 44.234 87.775 44.239 88.232 43.881 M 90.002 41.244 L 87.635 43.079 C 87.427 43.182 86.727 43.24 86.423 43.266 C 86.182 43.287 85.966 43.307 85.813 43.331 L 84.578 43.531 L 85.045 44.691 C 85.062 44.73 85.08 44.785 85.103 44.847 C 85.341 45.515 85.976 47.287 87.541 47.287 L 87.562 47.287 L 87.622 47.285 L 87.865 47.274 L 88.076 47.155 C 88.964 46.649 89.06 45.518 89.132 44.692 C 89.147 44.52 89.169 44.258 89.192 44.178 L 90.002 41.244 L 90.002 41.244 Z " stroke-width="1" fill="undefined"/>
      </g>
    </g>
    <g id="L_Wing_1_">
      <path id="Inner_3_" fill="#936C54" d="M 0.042 102.107 C 4.307 95.443 8.845 92.605 9.326 85.134 C 9.599 81.122 9.934 77.713 7.506 74.103 C 5.569 71.177 4.596 69.773 2.498 66.724 C 12.08 66.626 16.92 66.921 24.229 62.247 C 27.647 60.059 30.453 56.75 30.029 53.115 C 29.59 49.233 26.783 47.481 25.688 43.631 C 32.308 44.367 36.67 43.866 42.311 41.259 C 44.432 40.28 47.763 37.466 49.576 36.581 C 50.959 36.665 52.317 36.183 54.799 34.209 C 52.006 43.287 53.907 48.491 53.694 57.855 C 53.434 67.636 58.1 73.009 58.399 82.855 C 58.526 87.193 52.248 87.691 47.139 88.634 C 40.921 89.773 37.472 90.269 31.172 91.361 C 19.056 93.498 8.601 95.184 0.042 102.107 Z " stroke-width="1"/>
      <path id="Outer_2_" fill="#CF9F70" d="M 60.408 31.88 C 59.887 36.568 57.933 38.884 56.516 43.402 C 54.634 49.381 55.058 53.015 55.099 59.28 C 55.175 66.426 57.241 71.333 59.527 77.353 C 60.661 80.334 63.55 81.495 63.945 84.599 C 64.575 89.484 56.092 89.066 50.153 89.674 C 43.727 90.332 39.999 91.781 33.765 93.056 C 20.899 95.67 15.182 99.749 1.991 101.762 C 2.614 99.302 7.451 96.693 11.842 94.562 C 23.617 88.835 38.431 88.65 47.114 85.679 C 43.801 84.187 18.101 77.39 12.752 73.842 C 14.649 72.052 45.849 79.843 53.19 82.698 C 49.401 77.636 44.252 67.602 42.431 65.186 C 39.438 61.197 37.883 57.577 38.385 53.061 L 53.804 75.594 C 52.164 66.865 50.678 63.007 50.727 51.619 C 50.744 47.648 51.585 45.456 52.025 41.497 C 52.548 36.843 54.649 31.239 60.408 31.88 Z " stroke-width="1"/>
      <path id="Outline_4_" fill="#272525" d="M 65.341 83.697 C 62.171 78.857 59.113 77.771 57.697 71.193 C 55.085 59.048 56.352 47.546 59.705 35.861 C 59.992 34.869 60.407 33.574 59.313 32.715 C 58.031 33.513 57.441 35.077 56.998 36.31 C 53.216 46.756 53.321 62.424 56.605 73.222 C 57.584 76.439 61.921 83.191 62.201 85.246 C 62.724 89.086 55.861 88.367 52.789 88.649 C 37.318 90.075 20.541 95.147 4.846 100.223 L 4.631 99.951 C 15.626 91.747 34.409 88.402 49.149 86.893 C 49.814 86.598 51.284 86.61 51.013 85.701 C 50.303 85.457 42.026 83.311 38.678 82.388 C 30.37 80.103 22.214 77.355 14.452 73.939 C 21.933 73.997 53.08 83.828 55.183 83.267 C 55.094 83.185 54.856 83.053 54.532 82.894 L 54.533 82.896 C 50.966 77.132 39.62 61.152 38.984 55.31 C 44.901 63.903 48.56 73.303 56.62 80.924 L 57.658 81.04 C 58.119 80.125 57.139 79.44 56.749 78.638 C 51.573 67.967 49.95 50.488 53.887 39.814 C 54.358 38.536 55.909 35.422 54.815 34.068 C 53.841 34.47 52.616 36.74 52.218 37.578 C 47.245 48.031 49.6 61.185 52.529 72.068 C 46.465 64.156 36.663 47.118 36.219 49.09 C 34.263 57.792 46.43 75.75 51.902 81.765 C 49.788 80.923 47.243 80.004 46.114 79.703 C 34.802 76.679 23.388 73.789 11.639 72.522 C 9.839 73.904 14.566 75.52 15.998 76.16 C 24.769 80.059 35.226 82.961 44.668 85.447 C 32.357 87.662 15.164 91.014 4.638 97.688 C 9.015 92.211 11.117 83.969 9.83 78.221 C 9.236 75.204 7.944 72.364 5.579 69.7 C 5.01 69.003 4.492 67.888 3.871 67.221 C 5.181 67.596 6.922 67.95 7.682 68.033 C 21.19 69.54 35.696 57.379 28.828 46.477 C 28.33 45.688 27.634 44.899 27.196 43.895 C 32.545 44.68 38.308 44.313 42.823 41.932 C 45.209 40.671 48.648 38.911 49.95 36.824 C 49.905 36.551 49.672 36.233 49.265 36.298 C 48.493 37.539 46.695 38.26 45.368 39.066 C 41.063 41.677 31.585 43.021 24.462 42.894 C 28.25 50.56 31.135 55.952 23.048 62.29 C 19.391 65.155 11.841 66.17 6.864 66.493 C 5.936 66.55 2.848 65.85 2.497 66.722 C 8.164 74.201 11.184 85.421 5.488 93.343 C 4.407 94.849 1.805 98.499 0.773 100.614 C 0.21 101.221 -0.22 102 0.299 102.718 C 1.942 102.816 3.633 102.175 5.16 101.808 C 18.242 98.663 29.983 93.609 43.66 91.685 C 48.566 90.995 59.368 90.519 63.215 89.456 C 64.182 89.19 65.506 88.119 65.861 87.351 C 66.381 86.239 66.036 84.761 65.341 83.697 Z " stroke-width="1"/>
    </g>
  </g>
</svg>