<svg xmlns="http://www.w3.org/2000/svg" xmlns:xlink="http://www.w3.org/1999/xlink" version="1.1" width="151.0709991455078" height="78.19915008544922" viewBox="-0.426999993622303 -0.49921174242626876 151.0709991455078 78.19915008544922">
  <!-- Exported by Scratch - http://scratch.mit.edu/ -->
  <g id="ID0.5922052152454853">
    <path id="R_Wing" d="M 75.527 11.27 C 80 14.62 87.273 16.242 92.871 8.376 C 96.305 15.728 104.3 30.676 118.825 26.746 C 114.634 37.74 132.78 54.876 150.144 51.058 C 138.247 74.064 95.377 81.14 81.966 35.825 C 82.695 23.626 74.923 24.18 75.527 11.27 Z " stroke-width="1" fill="undefined"/>
    <path id="L_Wing" d="M 38.874 13.197 C 38.789 29.35 23.707 36.023 18.094 36.885 C 24.523 50.372 7.186 71.759 0.073 73.191 C 30.402 85.79 53.567 67.416 60.649 35.924 C 61.384 33.969 58.459 30.2 59.136 24.96 C 59.824 19.632 57.807 14.356 56.423 13.001 C 51.409 18.477 42.719 17.382 38.874 13.197 Z " stroke-width="1" fill="undefined"/>
    <path id="Body" d="M 86.625 23.066 C 91.514 32.443 94.939 42.435 94.939 42.435 C 94.939 42.435 88.343 40.016 83.025 43.643 C 78.173 46.952 73.13 54.284 73.13 54.284 C 73.13 54.284 71.109 45.819 61.535 44.007 C 57.17 43.183 50.472 48.237 50.472 48.237 C 50.472 48.237 47.595 37.251 48.748 26.067 C 49.373 20.007 54.409 14.387 54.409 14.387 C 54.409 14.387 51.43 3.386 52.175 2.539 C 52.92 1.693 61.323 10.276 61.749 11.244 C 63.664 10.276 66.216 10.157 67.493 10.882 C 68.133 10.157 73.238 0.122 74.304 0.002 C 75.366 -0.118 77.492 8.706 76.431 12.575 C 76.432 12.574 83.375 16.833 86.625 23.066 Z " stroke-width="1" fill="undefined"/>
    <path id="R_Eye" fill="#FFFFFF" d="M 68.294 19.584 C 68.294 19.584 70.9 12.27 72.495 14.506 C 74.091 16.743 68.294 19.584 68.294 19.584 Z " stroke-width="1"/>
    <path id="L_Eye" fill="#FFFFFF" d="M 62.018 20.006 C 62.018 20.006 58.029 13.479 56.699 16.077 C 55.37 18.677 62.018 20.006 62.018 20.006 Z " stroke-width="1"/>
  </g>
</svg>