<svg xmlns="http://www.w3.org/2000/svg" xmlns:xlink="http://www.w3.org/1999/xlink" version="1.1" width="141.00584411621094" height="109.42840576171875" viewBox="0.4907337427139282 -0.4998672604560852 141.00584411621094 109.42840576171875">
  <!-- Exported by Scratch - http://scratch.mit.edu/ -->
  <g id="ID0.6435067541897297">
    <path id="ID0.06439716974273324" fill="#FFFFFF" d="M 103.248 37.441 L 104.076 37.516 L 104.197 38.814 L 103.199 38.764 L 103.248 37.441 " stroke-width="1"/>
    <path id="ID0.32682618126273155" fill="#FFFFFF" d="M 106.533 40.586 L 107.943 40.436 L 108.259 41.833 L 106.703 41.958 L 106.533 40.586 " stroke-width="1"/>
    <path id="ID0.7868246049620211" fill="#272525" d="M 54.125 0.005 C 57.822 3.567 58.73 6.651 64.288 7.287 C 67.95 7.705 83.07 7.467 86.654 8.095 C 93.162 9.236 101.47 14.098 104.709 20.089 C 106.482 19.891 115.359 18.171 116.078 18.281 C 117.766 18.539 119.642 21.092 119.974 22.707 C 116.554 23.654 113.095 24.457 109.717 25.563 C 109.508 26.444 109.707 26.969 110.125 27.292 C 118.33 27.984 128.47 33.402 129.813 36.168 C 128.255 36.567 118.001 36.929 115.288 36.985 C 115.503 38.789 115.284 40.573 115.059 42.363 C 112.356 41.19 110.245 38.892 107.354 38.127 C 106.62 37.932 105.741 37.727 104.952 37.591 C 104.952 37.591 105.241 38.904 104.903 39.163 C 104.331 39.601 102.665 39.363 102.52 39.063 C 102.374 38.763 102.567 37.366 102.567 37.366 C 100.663 37.325 98.534 37.622 96.915 38.603 C 98.677 41.458 102.38 42.079 105.876 41.998 C 106.038 41.994 105.907 40.104 106.024 39.933 C 106.143 39.762 108.018 39.537 108.257 39.762 C 108.501 39.986 108.861 41.783 108.989 41.767 C 109.554 41.701 110.095 41.628 110.597 41.555 C 114.3 44.137 117.655 48.212 121.245 50.942 C 115.407 52.538 101.198 49.643 96.118 46.933 L 95.884 48.218 C 99.347 50.027 111.898 56.43 111.806 56.83 C 111.396 57.119 110.728 57.869 110.503 58.355 C 113.515 60.451 114.519 58.374 117.511 59.974 C 119.546 58.214 121.747 57.138 124.054 59.164 C 126.366 57.28 128.734 58.484 131.2 57.783 C 134.04 56.978 136.929 54.514 139.786 57.213 C 140.446 57.834 140.932 58.81 140.993 59.735 C 141.1 61.437 138.79 63.547 137.419 64.209 C 133.857 65.93 129.257 62.941 126.28 67.254 C 125.081 67.803 123.669 68.243 122.384 67.732 C 121.107 69.13 120.003 68.631 120.294 70.684 C 120.417 71.552 119.591 72.102 117.304 72.549 C 117.013 73.598 115.343 74.698 113.148 73.778 C 112.525 73.514 111.841 73.035 111.71 72.301 C 110.825 72.571 109.829 73.215 108.925 72.633 C 107.435 72.421 108.183 70.251 106.142 71.824 C 108.62 73.786 112.667 73.318 113.148 77.345 C 113.585 80.973 113.048 84.741 111.943 88.199 C 113.314 88.579 117.636 89.254 118.392 90.009 C 118.062 92.765 116.669 95.463 114.263 96.863 C 111.452 95.95 108.79 94.077 105.909 93.103 C 102.052 91.798 98.43 89.866 94.677 88.294 C 95.392 93.419 93.079 98.392 88.784 101.097 C 89.595 102.812 90.596 104.478 91.985 105.762 C 91.501 107.933 84.256 108.799 82.426 108.284 C 82.085 107.473 82.522 106.682 82.655 105.903 C 83.075 103.475 81.134 99.977 80.193 97.764 C 79.448 95.995 77.659 95.121 76.53 93.668 C 75.282 94.055 72.398 95.383 72.398 95.383 C 71.769 95.118 71.419 94.122 71.146 93.528 C 68.914 88.684 66.91 84.869 62.236 82.008 C 60.279 83.018 58.99 83.197 56.899 82.578 C 54.066 81.741 51.675 85.837 48.777 83.814 C 48.182 83.956 47.455 83.927 47.199 84.626 C 46.162 87.445 46.075 88.984 43.115 90.575 C 41.605 91.386 39.708 91.503 38.103 90.908 C 36.989 92.244 35.379 93.042 33.648 92.857 C 29.488 99.642 20.589 105.574 12.579 105.329 C 9.913 105.247 5.743 105.357 3.901 103.141 C 2.518 101.475 5.25 100.668 2.88 99.237 C -0.097 97.438 3.773 93.987 2.555 92.383 C 1.764 91.34 0.605 90.008 1.117 88.529 C 1.726 86.763 3.438 86.617 2.649 84.198 C 2.171 82.732 1.571 81.342 2.556 79.962 C 3.519 78.611 5.738 78.389 5.015 76.298 C 4.519 74.86 4.573 73.434 5.573 72.204 C 6.349 71.25 7.806 71.209 8.357 70.11 C 7.846 68.277 8.692 63.886 11.234 64.968 C 16.224 67.09 15.497 78.468 29.193 77.772 C 30.781 76.382 33.65 75.11 35.505 76.87 C 38.63 74.891 41.669 74.507 44.647 76.965 C 47.02 74.53 48.836 77.517 51.005 76.064 C 42.822 72.62 45.201 67.755 48.128 61.12 C 42.856 58.795 31.421 58.359 31.421 58.359 C 37.242 53.131 47.997 50.195 55.46 47.508 C 51.699 44.913 48.878 39.369 43.766 39.654 C 43.428 39.404 43.497 38.929 43.673 38.608 C 56.057 33.261 53.624 41.059 63.814 40.321 C 62.202 37.543 59.733 35.039 59.452 31.658 C 59.867 31.179 70.494 28.965 71.933 28.088 C 71.391 26.243 71.246 24.266 70.404 22.52 C 69.069 22.375 67.682 23.036 66.367 22.616 C 65.678 21.137 66.53 20.235 66.506 18.951 C 66.496 18.392 65.81 18.239 65.392 18.142 C 61.489 17.227 55.94 16.51 54.904 9.574 C 55.146 6.262 53.692 3.529 53.558 0.437 C 53.55 0.048 53.809 -0.021 54.125 0.005 Z " stroke-width="1"/>
    <path id="ID0.05533948866650462" fill="#5B76DF" d="M 101.693 20.565 C 92.476 22.305 83.705 25.235 74.633 27.514 C 74.191 25.945 73.279 20.904 72.734 19.993 C 72.379 19.401 70.151 20.989 68.743 20.898 C 67.229 19.205 70.322 18.31 69.95 16.995 C 65.892 14.511 58.496 18.482 56.817 7.857 C 65.172 14.223 88.815 5.69 100.116 18.137 C 100.695 18.779 101.307 19.784 101.693 20.565 Z " stroke-width="1"/>
    <path id="ID0.9962207623757422" fill="#5B76DF" d="M 116.82 21.946 C 112.351 23.576 85.924 30.979 67.397 41.222 C 65.663 38.697 64.155 36.001 63.035 33.131 C 75.445 28.97 110.088 20.763 114.408 20.423 C 116.066 20.292 116.281 20.477 116.82 21.946 Z " stroke-width="1"/>
    <path id="ID0.1328366044908762" fill="#272525" d="M 108.204 26.301 C 108.404 26.301 108.585 26.384 108.716 26.518 C 108.847 26.653 108.928 26.838 108.928 27.043 C 108.928 27.248 108.847 27.433 108.716 27.568 C 108.585 27.702 108.404 27.785 108.204 27.785 C 108.004 27.785 107.823 27.702 107.692 27.568 C 107.561 27.433 107.48 27.248 107.48 27.043 C 107.48 26.838 107.561 26.653 107.692 26.518 C 107.823 26.384 108.004 26.301 108.204 26.301 Z " stroke-width="1"/>
    <path id="ID0.27735526440665126" fill="#FFFFFF" d="M 108.375 27.086 L 105.535 26.836 C 106.279 26.884 108.514 25.087 108.375 27.086 Z " stroke-width="1"/>
    <path id="ID0.08902875613421202" fill="#9ED400" d="M 103.443 27.585 C 103.443 27.585 119.338 30.321 125.732 34.369 C 120.92 35.085 115.888 34.687 111.066 34.273 C 112.318 33.45 114.732 31.846 114.732 31.846 C 111.551 32.166 108.338 32.815 105.498 34.369 C 105.873 35.788 112.519 36.61 113.48 36.795 C 113.626 37.857 113.842 38.908 113.851 39.984 C 108.724 37.032 102.566 33.973 95.332 37.699 C 97.664 44.417 103.862 45.176 109.717 42.935 C 112.32 44.911 114.537 47.354 116.82 49.693 C 107.615 48.734 100.4 47.239 92.457 42.126 C 94.066 39.064 93.834 35.315 92.875 32.083 L 94.453 31.273 C 96.174 37.292 104.799 35.364 103.131 29.227 C 103 28.748 102.801 28.36 102.713 27.847 L 103.443 27.585 Z " stroke-width="1"/>
    <path id="ID0.18984746048226953" fill="#FFFFFF" d="M 100.425 32.975 C 98.404 34.296 97.477 32.425 96.446 30.513 C 97.825 29.48 99.557 29.226 101.044 28.419 C 102.177 30.579 101.732 32.12 100.425 32.975 Z " stroke-width="1"/>
    <path id="ID0.0979319759644568" fill="#FFFFFF" d="M 74.96 58.499 C 75.014 54.381 75.2 52.165 78.768 49.932 C 82.352 47.687 85.268 41.649 85.634 37.461 C 84.815 36.285 84.493 38.734 84.335 39.174 C 83.091 42.656 75.706 54.334 62.617 52.216 C 60.383 51.854 58.068 52.284 56.12 53.453 C 60.313 48.048 64.62 49.465 69.856 47.979 C 72.772 47.151 76.503 43.018 77.652 40.22 L 77.509 39.268 C 82.025 37.548 86.099 34.845 90.55 32.986 C 91.497 35.784 90.659 39.516 89.439 42.125 C 86.613 48.159 76.082 52.366 74.96 58.499 Z " stroke-width="1"/>
    <path id="ID0.17480083368718624" fill="#272525" d="M 101.059 29.181 C 101.409 29.181 101.726 29.326 101.955 29.561 C 102.185 29.796 102.327 30.121 102.327 30.479 C 102.327 30.837 102.185 31.162 101.955 31.397 C 101.726 31.632 101.409 31.777 101.059 31.777 C 100.709 31.777 100.392 31.632 100.163 31.397 C 99.933 31.162 99.791 30.837 99.791 30.479 C 99.791 30.121 99.933 29.796 100.163 29.561 C 100.392 29.326 100.709 29.181 101.059 29.181 Z " stroke-width="1"/>
    <path id="ID0.17948820162564516" fill="#FFFFFF" d="M 55.47 41.365 C 58.115 42.364 61.596 42.364 64.288 41.365 C 65.494 42.127 66.051 43.697 67.49 44.219 C 70.089 42.457 72.92 41.22 75.75 40.078 C 73.986 43.41 70.693 46.028 67.258 47.17 C 55.852 48.943 52.836 39.562 46.56 38.936 C 52.737 37.466 52.5 40.555 55.47 41.365 Z " stroke-width="1"/>
    <path id="ID0.7949208430945873" fill="#5B76DF" d="M 94.128 46.267 C 94.268 47.934 93.384 49.409 93.245 51.074 C 91.435 49.837 89.579 48.741 87.677 47.742 L 90.786 44.553 L 94.128 46.267 Z " stroke-width="1"/>
    <path id="ID0.07785108825191855" fill="#5B76DF" d="M 86.889 48.979 C 92.28 52.665 97.735 56.276 103.456 59.402 C 102.919 59.879 99.264 62.965 98.907 63.068 C 98.011 63.324 85.599 53.161 83.964 51.835 L 83.407 51.835 L 83.407 52.549 C 85.796 54.902 88.398 57.008 90.878 59.259 C 90.706 61.051 90.518 62.892 89.768 64.543 C 79.721 66.971 66.61 64.729 56.816 61.687 C 51.217 59.948 46.001 57.075 40.109 56.643 C 45.674 53.505 51.592 51.097 57.465 48.647 C 54.112 50.916 51.827 54.461 52.036 58.69 C 55.17 55.633 61.061 53.74 66.051 54.597 C 68.743 55.058 72.03 53.63 74.497 52.645 C 72.716 55.913 72.786 60.423 74.497 63.973 C 75.589 62.034 75.846 59.611 77.096 57.785 C 79.557 54.197 83.534 51.088 86.889 48.409 L 86.889 48.979 Z " stroke-width="1"/>
    <path id="ID0.6114822123199701" fill="#5B76DF" d="M 108.699 57.547 C 108.281 58.023 107.957 58.356 107.353 58.69 C 103.316 56.548 99.14 54.501 95.101 52.217 L 95.566 50.265 C 99.977 52.645 104.291 55.215 108.699 57.547 Z " stroke-width="1"/>
    <path id="ID0.5254930956289172" fill="#A16520" d="M 138.771 59.641 C 138.63 60.926 137.89 62.069 136.683 62.497 C 133.621 62.734 129.673 62.164 127.079 64.306 C 126.148 65.495 124.433 65.353 123.318 65.353 C 123.966 63.925 124.712 62.498 124.618 60.784 C 127.402 58.737 131.068 61.022 133.762 58.833 C 135.291 58.118 137.796 58.118 138.771 59.641 Z " stroke-width="1"/>
    <path id="ID0.059431628324091434" fill="#9ED400" d="M 121.648 64.781 C 119.351 64.794 119.814 62.787 120.951 61.545 C 119.16 61.522 119.572 62.978 118.722 62.83 C 118.767 62.166 118.691 61.48 118.398 60.879 C 119.349 60.314 120.169 59.614 121.252 60.124 C 123.828 61.338 123.373 62.425 121.648 64.781 Z " stroke-width="1"/>
    <path id="ID0.8488012659363449" fill="#9ED400" d="M 111.811 60.783 C 111.952 61.116 111.533 61.639 111.161 61.782 C 110.14 61.735 109.214 61.116 108.47 60.546 C 109.257 59.165 110.789 60.546 111.811 60.783 Z " stroke-width="1"/>
    <path id="ID0.9722592635080218" fill="#9ED400" d="M 114.5 63.4 C 114.42 65.751 116.203 69.616 118.723 69.921 C 118.807 70.458 118.243 70.818 117.936 71.158 C 116.205 71.341 115.6 70.083 114.5 69.111 C 114.111 68.765 113.381 69.138 113.48 69.681 C 113.605 70.369 115.187 71.702 115.707 72.203 C 114.096 74.008 112.334 71.068 112.041 69.681 C 112.041 69.681 110.795 72.111 109.396 71.396 C 107.959 68.463 109.816 65.978 107.494 65.11 L 102.574 63.255 C 103.92 62.719 105.146 61.317 105.875 61.118 C 107.725 61.593 110.223 62.918 112.041 63.492 C 112.543 61.718 113.832 60.966 115.383 60.779 C 115.768 60.998 116.656 60.965 116.821 61.446 C 117.227 62.638 115.027 62.604 114.5 63.4 Z " stroke-width="1"/>
    <path id="ID0.516073000151664" fill="#FFFFFF" d="M 98.816 66.019 C 99.508 65.971 99.976 65.257 100.578 64.876 C 101.506 65.162 102.482 65.399 103.363 65.78 C 101.785 68.493 98.722 65.733 96.588 67.255 C 96.125 67.304 95.752 67.589 95.336 67.733 C 93.34 67.162 91.762 68.256 89.998 68.542 C 89.533 69.209 88.699 68.257 88.096 67.971 C 88.977 67.448 91.438 68.162 91.762 66.495 C 92.272 64.687 92.133 62.593 92.783 60.88 C 94.777 62.401 96.958 64.306 98.816 66.019 Z " stroke-width="1"/>
    <path id="ID0.20563414599746466" fill="#5B76DF" d="M 83.964 68.541 C 88.837 70.541 92.874 74.441 96.774 78.346 C 98.122 79.917 99.559 81.63 100.581 83.393 C 98.397 84.537 96.033 85.295 93.808 86.247 C 92.831 83.296 86.753 79.107 86.199 79.154 C 86.71 82.181 85.835 85.974 84.898 88.533 C 81.419 90.627 77.378 91.341 73.622 92.767 C 71.349 87.719 67.822 82.154 62.717 79.726 C 59.19 77.441 48.747 73.566 48.852 71.301 C 49.018 67.73 50.512 65.206 52.044 62.255 C 58.163 63.781 73.078 69.107 83.964 68.541 Z " stroke-width="1"/>
    <path id="ID0.7611745717003942" fill="#9ED400" d="M 121.091 66.019 C 121.231 66.781 120.532 67.637 119.837 68.067 C 118.399 68.067 117.518 66.256 116.729 65.21 C 116.821 64.829 117.242 64.782 117.518 64.545 C 118.957 64.638 119.837 65.448 121.091 66.019 Z " stroke-width="1"/>
    <path id="ID0.8997160508297384" fill="#A16520" d="M 106.796 69.352 C 105.775 69.495 104.477 68.829 103.456 70.018 C 102.062 70.494 100.624 69.874 99.559 71.254 C 97.887 72.063 95.985 71.443 94.36 71.969 C 93.339 72.112 92.878 70.873 92.132 70.492 C 93.986 69.73 96.262 68.493 98.444 69.349 C 100.581 68.493 103.177 68.827 105.038 67.253 C 105.642 67.016 106.429 67.302 107.03 67.064 L 106.796 69.352 Z " stroke-width="1"/>
    <path id="ID0.29078865936025977" fill="#E7C45E" d="M 27.534 80.298 C 25.436 84.072 28.366 89.798 31.432 92.055 C 31.493 92.522 30.766 92.968 30.504 93.338 C 27.892 97.029 23.34 101.384 18.948 102.477 C 16.016 103.206 10.331 103.772 7.578 102.333 C 5.087 101.033 7.223 100.741 6.789 98.907 C 6.263 96.679 2.982 98.095 4.237 95.623 C 4.918 94.281 7.093 93.219 6.233 91.387 C 5.576 89.99 3.341 90.362 3.449 88.77 C 7.058 85.256 3.268 83.528 4.145 81.916 C 4.767 80.773 7.119 81.044 8.136 79.061 C 9.198 76.993 5.198 74.579 8.368 73.348 C 9.122 73.057 9.69 72.924 10.363 72.397 C 11.563 71.459 9.819 66.942 12.591 68.876 C 13.639 69.608 14.742 73.163 15.932 74.493 C 17.68 76.445 19.598 78.146 21.826 79.49 C 23.713 80.626 25.476 80.191 27.534 80.298 Z " stroke-width="1"/>
    <path id="ID0.9237181232310832" fill="#FFFFFF" d="M 102.341 73.109 C 103.106 75.681 106.022 77.829 104.57 80.773 C 104.001 81.925 104.075 83.142 103.595 84.294 L 102.574 84.198 C 103.453 81.642 97.873 75.594 96.029 74.01 C 97.607 73.486 99.439 72.929 101.043 73.676 C 101.464 73.461 101.848 73.13 102.341 73.109 Z " stroke-width="1"/>
    <path id="ID0.47349710389971733" fill="#7E4094" d="M 104.514 73.199 C 106.436 74.97 108.188 75.695 108.992 78.189 C 110.231 82.056 108.507 84.127 108.114 88.57 C 109.77 89.019 110.426 88.591 112.204 89.216 C 113.956 89.84 112.132 92.562 111.913 94.456 C 111.718 96.252 114.975 96.649 116.292 95.453 C 118.114 93.807 119.505 92.46 119.505 89.964 C 119.505 87.097 117.53 85.922 116.392 83.276 C 115.417 81.005 115.246 79.535 114.249 77.289 C 112.639 73.673 107.335 70.305 104.514 73.199 Z " stroke-width="1"/>
    <path id="ID0.4258974581025541" fill="#272525" d="M 111.714 89.868 L 110.352 94.359 C 110.79 94.683 111.253 95.482 111.62 95.058 C 112.497 94.06 112.737 92.861 113.081 91.564 C 113.227 90.941 114.054 89.668 113.665 89.168 C 113.32 88.721 112.275 89.968 111.714 89.868 Z " stroke-width="1"/>
    <path id="ID0.34307446982711554" fill="#9E73BF" d="M 116.171 91.055 C 115.846 92.414 114.583 93.645 113.618 94.576 C 108.012 92.342 102.669 89.484 97.142 87.056 C 99.618 85.92 102.251 85.185 104.704 86.816 C 106.811 85.581 106.313 82.904 106.604 80.868 C 107.005 78.056 106.719 76.624 105.122 74.253 C 106.184 74.876 108.56 77.577 108.692 78.823 C 108.743 79.265 107.073 86.426 106.93 88.054 C 107.258 88.51 109.618 89.269 109.618 89.269 C 109.655 89.05 109.618 88.396 109.788 87.771 C 109.618 87.492 108.806 87.452 108.835 87.26 C 109.314 84.519 110.165 79.556 110.04 78.345 C 109.886 76.826 107.472 74.506 106.374 73.535 C 107.569 74.381 110.513 75.391 111.062 76.77 C 112.325 79.923 109.454 87.958 109.628 89.213 C 109.738 89.949 114.619 90.368 116.171 91.055 Z " stroke-width="1"/>
    <path id="ID0.3070863913744688" fill="#272525" d="M 10.594 73.682 C 13.224 78.348 20.747 83.588 26.187 82.581 C 26.609 82.971 26.275 83.582 26.048 83.962 C 21.418 86.481 10.211 78.971 10.27 73.682 L 10.594 73.682 Z " stroke-width="1"/>
    <path id="ID0.17281099827960134" fill="#E7C45E" d="M 42.569 78.107 C 39.38 77.924 38.047 82.662 39.877 85.103 C 41.119 86.756 43.387 85.822 44.982 85.437 C 42.712 93.855 28.293 86.507 35.515 79.058 C 37.129 77.395 40.646 76.695 42.569 78.107 Z " stroke-width="1"/>
    <path id="ID0.42931640567258" fill="#A16520" d="M 60.019 80.393 C 58.464 81.672 56.631 79.91 54.821 80.393 C 52.042 81.139 52.18 82.436 48.881 81.774 C 46.483 81.295 44.494 86.078 41.456 83.725 C 39.614 78.49 45.077 81.636 46.329 78.584 C 47.631 77.875 48.604 79.432 50.135 78.68 C 54.313 76.626 56.381 77.494 60.019 80.393 Z " stroke-width="1"/>
    <path id="ID0.9481248622760177" fill="#DC511B" d="M 33.427 78.488 C 32.055 81.099 31.146 84.769 32.963 87.388 C 33.759 88.534 34.956 89.2 35.98 90.101 C 32.499 92.941 25.781 83.898 32.082 78.822 C 32.689 78.489 32.888 78.295 33.427 78.488 Z " stroke-width="1"/>
    <path id="ID0.3887061388231814" fill="#272525" d="M 12.59 84.391 C 16.442 85.247 20.804 85.104 24.749 85.438 C 25.074 85.772 25.723 85.628 25.863 86.25 C 25.445 87.396 24.007 86.869 23.078 87.153 C 16.813 87.77 10.224 87.153 5.583 82.821 L 5.583 82.344 C 7.903 83.059 10.039 84.247 12.59 84.391 Z " stroke-width="1"/>
    <path id="ID0.7254943046718836" fill="#9E73BF" d="M 88.652 92.625 C 87.769 94.624 86.049 96.051 84.336 97.432 C 84.336 97.432 86.332 99.716 86.424 101.096 L 83.965 102.096 C 83.315 98.716 81.274 95.481 78.535 93.1 C 79.695 92.866 80.67 92.367 81.351 92.065 C 82.324 93.063 84.521 95.579 85.31 93.338 C 87.119 90.15 87.398 86.391 87.674 82.581 C 89.208 85.581 89.441 89.245 88.652 92.625 Z " stroke-width="1"/>
    <path id="ID0.3346599624492228" fill="#7E4094" d="M 87.537 99.145 L 86.75 97.766 C 89.76 95.507 91.994 92.177 91.438 88.202 C 91.147 86.14 89.917 84.453 89.119 82.585 C 95.141 88.448 94.266 94.542 87.537 99.145 Z " stroke-width="1"/>
    <path id="ID0.8490683399140835" fill="#272525" d="M 7.021 92.625 C 7.021 92.625 16.95 91.55 21.268 90.008 C 22.602 89.529 25.736 86.958 27.162 88.389 C 27.776 89.005 27.041 89.451 26.605 89.77 C 22.21 92.996 11.742 96.312 7.021 92.625 Z " stroke-width="1"/>
    <path id="ID0.10609903605654836" fill="#FFFFFF" d="M 84.197 92.291 C 83.685 92.244 83.314 91.768 82.849 91.482 C 83.314 91.148 83.916 91.195 84.426 91.05 L 84.197 92.291 Z " stroke-width="1"/>
    <path id="ID0.8806984364055097" fill="#272525" d="M 29.064 91.721 C 28.2 96.384 14.304 102.75 9.712 102.575 L 9.48 102.096 C 12.279 100.38 15.337 99.598 18.158 97.766 C 19.703 96.762 26.744 91.432 27.625 91.245 C 28.073 91.148 28.819 91.257 29.064 91.721 Z " stroke-width="1"/>
    <path id="ID0.04521878343075514" fill="#7E4094" d="M 89.115 105.332 C 87.709 106.264 86.051 106.328 84.427 106.236 C 84.559 105.236 83.563 103.793 85.075 103.476 C 85.937 103.291 86.882 102.784 87.763 102.904 C 88.139 103.393 89.037 104.691 89.115 105.332 Z " stroke-width="1"/>
  </g>
</svg>