<svg version="1.1" xmlns="http://www.w3.org/2000/svg" xmlns:xlink="http://www.w3.org/1999/xlink" width="138.13867" height="86.71301" viewBox="0,0,138.13867,86.71301"><g transform="translate(-171.00033,-115.00399)"><g data-paper-data="{&quot;isPaintingLayer&quot;:true}" fill-rule="nonzero" stroke="none" stroke-width="1" stroke-linecap="butt" stroke-linejoin="miter" stroke-miterlimit="10" stroke-dasharray="" stroke-dashoffset="0" style="mix-blend-mode: normal"><path d="M230.251,179c-5.811,4.886 -8.633,9.686 -9.747,16.641c-1.436,-2.418 -2.952,-4.383 -5.558,-5.289c-6.063,-2.112 -10.584,0.062 -15.956,4.11c-2.127,-7.979 -3.191,-14.024 -9.574,-18.377c-6.063,-4.109 -12.552,-1.452 -17.658,4.353c-5.531,-34.818 20.636,-50.536 32.55,-50.536c-0.69,10.215 2.128,25.873 22.338,32.643c-3.27,2.625 -4.706,8.341 3.605,16.455z" fill="#000000"/><path d="M243.028,161.823c24.038,-11.848 19.48,-34.89 15.137,-44.759c12.064,-5.509 44.162,-1.934 50.974,35.35c-7.243,-3.426 -14.757,-3.078 -19.431,3.824c-4.913,7.292 -3.832,13.812 -3.142,22.754c-6.883,-1.556 -12.234,-1.636 -17.621,3.277c-2.317,2.107 -2.965,4.597 -4.006,7.585c-4.498,-6.066 -5.721,-11.256 -17.438,-11.854c1.375,-3.425 3.979,-9.846 -4.473,-16.177z" fill="#000000"/><path d="M256.80393,170.5c4.89,9.377 8.313,19.369 8.313,19.369c0,0 -6.596,-2.419 -11.914,1.208c-4.852,3.308 -9.895,10.64 -9.895,10.64c0,0 -2.021,-8.464 -11.595,-10.277c-4.365,-0.822 -11.063,4.23 -11.063,4.23c0,0 -2.875,-10.986 -1.722,-22.17c0.625,-6.06 5.661,-11.68 5.661,-11.68c0,0 -2.979,-11.001 -2.234,-11.848c0.745,-0.846 9.148,7.737 9.574,8.705c1.915,-0.968 4.467,-1.087 5.744,-0.362c0.64,-0.725 5.745,-10.76 6.811,-10.88c1.062,-0.12 3.188,8.704 2.127,12.573c0,0 6.943,4.259 10.193,10.492z" fill="#000000"/><path d="M238.295,167.018c0,0 2.606,-7.314 4.201,-5.078c1.596,2.237 -4.201,5.078 -4.201,5.078z" fill="#ffffff"/><path d="M226.7,163.511c1.33,-2.598 5.319,3.929 5.319,3.929c0,0 -6.648,-1.329 -5.319,-3.929z" fill="#ffffff"/></g></g></svg>